<svg width="32" height="32" viewBox="0 0 32 32" fill="none" xmlns="http://www.w3.org/2000/svg">
<rect width="32" height="32" rx="16" fill="black"/>
<path d="M22.5 10.5H9.5C9.22344 10.5 9 10.7234 9 11V21C9 21.2766 9.22344 21.5 9.5 21.5H22.5C22.7766 21.5 23 21.2766 23 21V11C23 10.7234 22.7766 10.5 22.5 10.5ZM21.2375 12.2016L16.3078 16.0375C16.1859 16.1328 16.0156 16.1328 15.8938 16.0375L10.9625 12.2016C10.9439 12.1872 10.9303 12.1674 10.9235 12.1449C10.9167 12.1224 10.9172 12.0984 10.9248 12.0762C10.9323 12.054 10.9467 12.0347 10.9658 12.021C10.9849 12.0073 11.0078 12 11.0312 12H21.1687C21.1922 12 21.2151 12.0073 21.2342 12.021C21.2533 12.0347 21.2677 12.054 21.2752 12.0762C21.2828 12.0984 21.2833 12.1224 21.2765 12.1449C21.2697 12.1674 21.2561 12.1872 21.2375 12.2016Z" fill="white"/>
</svg>
