<svg width="1440" height="553" viewBox="0 0 1440 553" fill="none" xmlns="http://www.w3.org/2000/svg">
<g opacity="0.06">
<path d="M1264.12 469.885C1273.95 443.358 1272.9 409.022 1265.72 380.337C1258.54 351.652 1245.96 327.52 1233.15 304.595C1216.22 274.284 1197.99 244.475 1175.18 227.154C1143.37 203.013 1106.45 205.884 1071.72 214.204C1010.07 228.978 950.167 259.25 891.914 295.255C829.469 333.851 765.795 379.978 699.099 373.808C639.247 368.273 598.418 320.684 555.202 259.354C514.897 202.153 481.557 128.361 431.541 90.9376C365.912 41.831 285.131 67.0869 226.734 136.239C168.337 205.392 130.318 312.508 108.583 424.519" stroke="#8D6B93" stroke-width="0.864782" stroke-miterlimit="10"/>
<path d="M1269.8 458.141C1278.73 435.238 1276.12 404.572 1267.77 377.665C1259.45 350.835 1246.4 327.33 1232.98 305.758C1215.32 277.359 1196.58 248.704 1173.16 232.489C1139.87 209.439 1101.31 211.588 1065.27 218.83C1003.85 231.166 944.306 259.631 886.534 293.405C825.081 329.332 762.657 373.726 697.108 366.885C637.315 360.646 595.695 314.639 552.041 256.522C511.198 202.399 477.255 133.558 427.677 99.3605C362.844 54.6383 283.757 81.1439 225.554 149.081C167.109 217.165 128.125 319.508 105.081 428.644" stroke="#8D6B93" stroke-width="0.864782" stroke-miterlimit="10"/>
<path d="M1275.47 446.398C1283.5 427.117 1279.36 400.201 1269.82 374.997C1260.39 350.087 1246.84 327.144 1232.81 306.93C1214.43 280.45 1195.14 252.963 1171.14 237.829C1136.35 215.894 1096.2 217.325 1058.82 223.457C997.673 233.484 938.457 260.011 881.153 291.554C820.703 324.831 759.513 367.456 695.116 359.958C635.381 353.001 593.046 308.426 548.876 253.689C507.573 202.503 472.972 138.764 423.812 107.783C359.801 67.4457 282.381 95.2009 224.372 161.927C165.877 228.944 125.928 326.508 101.575 432.773" stroke="#8D6B93" stroke-width="0.864782" stroke-miterlimit="10"/>
<path d="M1281.14 434.654C1288.27 418.997 1282.65 395.903 1271.86 372.325C1261.37 349.382 1247.29 326.963 1232.64 308.097C1213.56 283.538 1193.69 257.244 1169.12 243.165C1132.8 222.363 1091.1 223.089 1052.36 228.079C991.518 235.914 932.621 260.392 875.774 289.699C816.343 320.338 756.371 361.169 693.125 353.031C633.446 345.352 590.356 302.299 545.715 250.853C503.907 202.672 468.716 143.962 419.95 116.202C356.784 80.2402 281.008 109.258 223.193 174.765C164.65 240.709 123.735 333.5 98.0742 436.889" stroke="#8D6B93" stroke-width="0.864782" stroke-miterlimit="10"/>
<path d="M1286.82 422.91C1293.05 410.876 1286 391.652 1273.91 369.652C1262.4 348.703 1247.75 326.781 1232.46 309.265C1212.7 286.625 1192.22 261.546 1167.1 248.505C1129.24 228.861 1086.02 228.892 1045.91 232.705C985.386 238.461 926.802 260.785 870.395 287.844C811.998 315.859 753.228 354.86 691.134 346.1C631.508 337.69 587.657 296.163 542.553 248.016C500.234 202.84 464.48 149.163 416.086 124.616C353.795 93.0215 279.634 123.306 222.013 187.598C163.422 252.483 121.542 340.496 94.5723 441.014" stroke="#8D6B93" stroke-width="0.864782" stroke-miterlimit="10"/>
<path d="M1292.49 411.166C1297.83 402.761 1289.4 387.428 1275.96 366.985C1263.5 348.033 1248.23 326.599 1232.29 310.432C1211.86 289.703 1190.75 265.87 1165.08 253.841C1125.67 235.382 1080.96 234.725 1039.46 237.328C979.268 241.107 920.999 261.178 865.014 285.989C807.665 311.405 750.082 348.534 689.142 339.173C629.567 330.024 584.955 290.036 539.391 245.184C496.556 203.018 460.267 154.361 412.224 133.039C350.835 105.794 278.346 137.571 220.835 200.445C162.278 264.46 119.348 347.492 91.0693 445.135" stroke="#8D6B93" stroke-width="0.864782" stroke-miterlimit="10"/>
<path d="M1298.16 399.423C1302.6 394.641 1292.86 383.204 1278.01 364.313C1264.66 347.337 1248.72 326.409 1232.12 311.6C1211.02 292.778 1189.28 270.216 1163.06 259.181C1122.08 241.937 1075.9 240.597 1033.01 241.959C973.161 243.857 915.211 261.594 859.633 284.143C803.348 306.978 746.938 342.2 687.15 332.255C627.625 322.353 582.245 283.918 536.229 242.357C492.872 203.199 456.08 159.554 408.359 141.467C347.901 118.55 276.985 151.667 219.654 213.291C161.063 276.269 117.153 354.489 87.5664 449.26" stroke="#8D6B93" stroke-width="0.864782" stroke-miterlimit="10"/>
<path d="M1303.83 387.679C1307.37 386.52 1296.38 378.954 1280.06 361.645C1265.87 346.602 1249.21 326.219 1231.94 312.772C1210.2 295.844 1187.79 274.587 1161.03 264.521C1118.49 248.519 1070.85 246.508 1026.55 246.586C967.065 246.69 909.436 262.018 854.249 282.293C799.041 302.572 743.788 335.844 685.154 325.328C625.68 314.661 579.528 277.796 533.063 239.525C489.183 203.381 451.914 164.73 404.491 149.89C344.996 131.271 275.617 165.759 218.47 226.138C159.841 288.082 114.953 361.494 84.0576 453.39" stroke="#8D6B93" stroke-width="0.864782" stroke-miterlimit="10"/>
<path d="M1309.51 375.935C1312.15 378.4 1299.95 374.651 1282.1 358.972C1267.12 345.81 1249.72 326.007 1231.77 313.935C1209.4 298.883 1186.3 278.967 1159.02 269.852C1114.89 255.116 1065.81 252.449 1020.1 251.203C960.982 249.595 903.681 262.45 848.875 280.429C794.76 298.183 740.647 329.457 683.171 318.393C623.744 306.952 576.816 271.668 529.909 236.679C485.497 203.554 447.787 169.871 400.638 158.295C342.132 143.936 274.261 179.829 217.3 238.962C158.626 299.878 112.765 368.485 80.5605 457.506" stroke="#8D6B93" stroke-width="0.864782" stroke-miterlimit="10"/>
<path d="M1315.18 364.192C1316.93 370.284 1303.54 370.28 1284.15 356.305C1268.41 344.959 1250.23 325.791 1231.6 315.107C1208.6 301.915 1184.81 283.378 1156.99 275.197C1111.28 261.754 1060.77 258.442 1013.65 255.835C954.897 252.583 897.939 262.913 843.491 278.583C790.485 293.838 737.496 323.067 681.176 311.47C621.797 299.242 574.09 265.563 526.744 233.852C481.797 203.744 443.672 175.003 396.771 166.723C339.283 156.575 272.891 193.916 216.114 251.813C157.405 311.678 110.568 375.482 77.0576 461.631" stroke="#8D6B93" stroke-width="0.864782" stroke-miterlimit="10"/>
<path d="M1320.86 352.448C1321.7 362.164 1307.17 365.83 1286.2 353.633C1269.71 344.038 1250.75 325.557 1231.43 316.274C1207.81 304.924 1183.31 287.797 1154.97 280.533C1107.67 268.408 1055.74 264.469 1007.2 260.457C948.819 255.631 892.217 263.388 838.113 276.727C786.229 289.522 734.351 316.654 679.186 304.543C619.853 291.52 571.363 259.458 523.581 231.015C478.094 203.939 439.581 180.092 392.906 175.141C336.464 169.153 271.524 207.995 214.932 264.651C156.182 323.469 108.373 382.473 73.5518 465.747" stroke="#8D6B93" stroke-width="0.864782" stroke-miterlimit="10"/>
<path d="M1326.53 340.704C1326.48 354.043 1310.8 361.303 1288.25 350.965C1271.02 343.065 1251.27 325.311 1231.26 317.441C1207.02 307.916 1181.81 292.233 1152.96 285.873C1104.06 275.093 1050.71 270.544 1000.75 265.087C942.739 258.749 886.507 263.898 832.733 274.881C781.985 285.246 731.205 310.229 677.194 297.625C617.906 283.788 568.629 253.37 520.419 228.192C474.39 204.151 435.515 185.156 389.044 183.573C333.671 181.688 270.157 222.082 213.754 277.501C154.961 335.273 106.182 389.478 70.0518 469.881" stroke="#8D6B93" stroke-width="0.864782" stroke-miterlimit="10"/>
<path d="M1332.2 328.96C1331.25 345.922 1314.44 356.702 1290.3 348.292C1272.34 342.035 1251.8 325.047 1231.08 318.608C1206.24 310.886 1180.32 296.686 1150.93 291.208C1100.44 281.799 1045.68 276.658 994.292 269.709C936.661 261.913 880.812 264.43 827.354 273.026C777.753 280.999 728.061 303.777 675.204 290.693C615.962 276.026 565.895 247.277 517.259 225.35C470.682 204.353 431.467 190.153 385.182 191.983C330.897 194.131 268.787 236.147 212.576 290.334C153.737 347.06 103.987 396.469 66.5488 474.001" stroke="#8D6B93" stroke-width="0.864782" stroke-miterlimit="10"/>
<path d="M1337.88 317.216C1336.03 337.803 1318.07 352.032 1292.35 345.624C1273.64 340.963 1252.32 324.77 1230.91 319.78C1205.46 313.844 1178.82 301.153 1148.92 296.552C1096.83 288.536 1040.65 282.824 987.84 274.34C930.581 265.144 875.131 265.001 821.974 271.175C773.535 276.805 724.917 297.313 673.212 283.771C614.015 268.261 563.153 241.202 514.096 222.523C466.969 204.579 427.429 195.113 381.317 200.41C328.136 206.52 267.414 250.222 211.395 303.181C152.509 358.851 101.793 403.465 63.0459 478.122" stroke="#8D6B93" stroke-width="0.864782" stroke-miterlimit="10"/>
<path d="M1343.55 305.473C1340.8 329.686 1321.68 347.302 1294.4 342.952C1274.94 339.852 1252.85 324.476 1230.74 320.943C1204.68 316.78 1177.32 305.624 1146.9 301.884C1093.22 295.281 1035.61 289.02 981.391 278.958C924.499 268.404 869.464 265.597 816.596 269.316C769.327 272.641 721.777 290.823 671.223 276.835C612.073 260.469 560.414 235.127 510.937 219.677C463.256 204.795 423.403 199.995 377.459 208.82C325.389 218.821 266.045 264.279 210.22 316.014C151.288 370.625 99.6017 410.457 59.5488 482.238" stroke="#8D6B93" stroke-width="0.864782" stroke-miterlimit="10"/>
<path d="M1349.22 293.729C1345.58 321.566 1325.29 342.52 1296.44 340.284C1276.22 338.715 1253.37 324.173 1230.57 322.115C1203.9 319.707 1175.82 310.116 1144.88 307.224C1089.6 302.061 1030.57 295.268 974.935 283.585C918.407 271.716 863.801 266.246 811.212 267.465C765.122 268.533 718.63 284.324 669.228 269.913C610.123 252.669 557.665 229.069 507.771 216.85C459.537 205.037 419.375 204.834 373.591 217.247C322.636 231.058 264.667 278.349 209.036 328.861C150.054 382.412 97.4042 417.458 56.04 486.368" stroke="#8D6B93" stroke-width="0.864782" stroke-miterlimit="10"/>
<path d="M1354.9 281.986C1350.35 313.447 1328.88 337.699 1298.49 337.613C1277.49 337.552 1253.9 323.859 1230.39 323.284C1203.11 322.618 1174.32 314.614 1142.86 312.565C1085.99 308.859 1025.53 301.564 968.483 288.217C912.314 275.072 858.149 266.947 805.832 265.62C760.928 264.478 715.486 277.813 667.236 262.995C608.182 244.856 554.921 223.029 504.609 214.027C455.822 205.293 415.349 209.616 369.726 225.675C319.883 243.226 263.292 292.419 207.855 341.712C148.825 394.196 95.2101 424.459 52.54 490.493" stroke="#8D6B93" stroke-width="0.864782" stroke-miterlimit="10"/>
<path d="M1360.57 270.242C1355.13 305.326 1332.45 332.843 1300.54 334.945C1278.75 336.38 1254.42 323.53 1230.22 324.451C1202.32 325.514 1172.83 319.119 1140.84 317.9C1082.37 315.669 1020.47 307.899 962.031 292.838C906.217 278.453 852.503 267.691 800.455 263.76C756.74 260.461 712.351 271.271 665.248 256.059C606.244 237.008 552.18 216.984 501.451 211.181C452.107 205.539 411.318 214.303 365.868 234.085C317.129 255.298 261.921 306.463 206.681 354.541C147.597 405.965 93.0197 431.446 49.041 494.609" stroke="#8D6B93" stroke-width="0.864782" stroke-miterlimit="10"/>
<path d="M1366.24 258.497C1359.9 297.209 1336.01 327.961 1302.59 332.272C1279.99 335.186 1254.93 323.187 1230.05 325.618C1201.53 328.402 1171.33 323.637 1138.81 323.239C1078.76 322.504 1015.41 314.285 955.574 297.465C900.108 281.873 846.853 268.494 795.07 261.909C752.547 256.5 709.209 264.715 663.254 249.136C604.301 229.147 549.433 210.956 498.284 208.353C448.388 205.811 407.263 218.947 361.999 242.512C314.345 267.323 260.536 320.524 205.496 367.387C146.359 417.739 90.8212 438.45 45.5312 498.738" stroke="#8D6B93" stroke-width="0.864782" stroke-miterlimit="10"/>
<path d="M1371.92 246.754C1364.68 289.09 1339.55 323.063 1304.64 329.605C1281.23 333.994 1255.45 322.847 1229.88 326.79C1200.73 331.287 1169.84 328.165 1136.8 328.58C1075.16 329.358 1010.35 320.715 949.128 302.092C894.002 285.324 841.214 269.364 789.695 260.059C748.36 252.596 706.079 258.148 661.268 242.21C602.37 221.265 546.697 204.938 495.127 205.517C444.678 206.084 403.196 223.518 358.141 250.931C311.553 279.279 259.161 334.573 204.32 380.229C145.131 429.504 88.63 445.447 42.0342 502.864" stroke="#8D6B93" stroke-width="0.864782" stroke-miterlimit="10"/>
<path d="M1377.59 235.01C1369.45 280.969 1343.07 318.146 1306.69 326.932C1282.45 332.786 1255.96 322.487 1229.71 327.957C1199.93 334.157 1168.35 332.691 1134.78 333.919C1071.55 336.224 1005.27 327.187 942.673 306.718C887.88 288.799 835.56 270.293 784.312 258.208C744.164 248.738 702.941 251.557 659.273 235.287C600.435 213.36 543.952 198.931 491.963 202.689C440.962 206.373 399.098 228.035 354.276 259.353C308.728 291.182 257.781 348.621 203.137 393.07C143.892 441.269 86.4334 452.442 38.5264 506.984" stroke="#8D6B93" stroke-width="0.864782" stroke-miterlimit="10"/>
<path d="M1383.26 223.266C1374.23 272.849 1346.58 313.221 1308.73 324.264C1283.66 331.58 1256.46 322.132 1229.53 329.124C1199.13 337.024 1166.86 337.227 1132.76 339.255C1067.95 343.103 1000.18 333.703 936.22 311.344C881.751 292.302 829.897 271.292 778.934 256.357C739.963 244.933 699.812 244.955 657.283 228.364C598.508 205.434 541.218 192.93 488.802 199.857C437.254 206.671 394.972 232.498 350.414 267.777C305.877 303.042 256.4 362.665 201.958 405.917C142.657 453.03 84.2411 459.443 35.0254 511.113" stroke="#8D6B93" stroke-width="0.864782" stroke-miterlimit="10"/>
<path d="M1388.94 211.523C1379 264.728 1350.08 308.287 1310.78 321.592C1284.86 330.37 1256.96 321.765 1229.36 330.292C1198.32 339.882 1165.37 341.772 1130.74 344.591C1064.35 350 995.082 340.267 929.767 315.967C875.615 295.822 824.221 272.36 773.553 254.498C735.75 241.172 696.684 238.327 655.291 221.429C596.583 197.466 538.481 186.928 485.64 197.016C433.546 206.961 390.81 236.904 346.552 276.191C302.994 314.856 255.02 376.696 200.78 418.75C141.42 464.774 82.047 466.435 31.5254 515.23" stroke="#8D6B93" stroke-width="0.864782" stroke-miterlimit="10"/>
<path d="M1394.61 199.779C1383.78 256.613 1353.57 303.35 1312.83 318.925C1286.05 329.159 1257.46 321.398 1229.18 331.464C1197.5 342.745 1163.88 346.325 1128.71 349.936C1060.75 356.915 989.971 346.879 923.312 320.598C869.466 299.368 818.522 273.515 768.17 252.652C731.519 237.467 693.56 231.694 653.297 214.511C594.663 189.484 535.747 180.944 482.475 194.189C429.839 207.277 386.608 241.285 342.685 284.619C300.071 326.66 253.635 390.736 199.597 431.601C140.178 476.536 79.8504 473.44 28.0176 519.364" stroke="#8D6B93" stroke-width="0.864782" stroke-miterlimit="10"/>
<path d="M1400.28 188.035C1388.55 248.492 1357.05 298.412 1314.87 316.252C1287.23 327.948 1257.95 321.021 1229.01 332.627C1196.68 345.594 1162.39 350.874 1126.7 355.267C1057.16 363.828 984.85 353.524 916.862 325.216C863.314 302.922 812.8 274.725 762.792 250.793C727.274 233.795 690.442 225.031 651.306 207.575C592.752 181.454 533.02 174.951 479.315 191.347C426.139 207.579 382.376 245.625 338.822 293.028C297.115 338.425 252.251 404.754 198.418 444.43C138.941 488.266 77.6554 480.422 24.5166 523.471" stroke="#8D6B93" stroke-width="0.864782" stroke-miterlimit="10"/>
<path d="M1405.96 176.292C1393.33 240.372 1360.52 293.47 1316.92 313.585C1288.41 326.738 1258.44 320.65 1228.84 333.799C1195.86 348.449 1160.91 355.432 1124.68 360.612C1053.57 370.769 979.715 360.227 910.41 329.847C857.152 306.502 807.045 276.027 757.415 248.947C723.011 230.172 687.328 218.368 649.318 200.657C590.852 173.412 530.298 168.985 476.156 188.524C422.446 207.908 378.103 249.958 334.964 301.461C294.129 350.208 250.872 418.79 197.243 457.286C137.705 500.019 75.4676 487.432 21.0176 527.61" stroke="#8D6B93" stroke-width="0.864782" stroke-miterlimit="10"/>
<path d="M1411.63 164.548C1398.1 232.252 1363.98 288.527 1318.97 310.912C1289.58 325.527 1258.93 320.269 1228.67 334.966C1195.04 351.298 1159.43 359.993 1122.65 365.947C1049.98 377.712 974.565 366.963 903.955 334.473C850.975 310.095 801.249 277.402 752.031 247.096C718.712 226.579 684.216 211.683 647.322 193.734C588.952 165.33 527.573 163.013 472.988 185.692C418.745 208.232 373.785 254.273 331.094 309.883C291.097 361.982 249.48 432.816 196.057 470.127C136.457 511.754 73.2674 494.432 17.5088 531.734" stroke="#8D6B93" stroke-width="0.864782" stroke-miterlimit="10"/>
<path d="M1417.3 152.805C1402.88 224.132 1367.44 283.59 1321.02 308.245C1290.75 324.326 1259.42 319.889 1228.5 336.134C1194.21 354.148 1157.95 364.56 1120.64 371.283C1046.4 384.666 969.403 373.739 897.505 339.096C844.797 313.697 795.417 278.838 746.653 245.237C714.393 223.008 681.112 204.977 645.333 186.799C587.072 157.198 524.858 157.029 469.828 182.852C415.059 208.549 369.439 258.572 327.232 318.298C288.038 373.757 248.094 446.826 194.879 482.961C135.218 523.472 71.0733 501.42 14.0088 535.847" stroke="#8D6B93" stroke-width="0.864782" stroke-miterlimit="10"/>
<path d="M1422.98 141.061C1407.65 216.016 1370.89 278.647 1323.07 305.572C1291.91 323.114 1259.9 319.508 1228.33 337.301C1193.38 356.997 1156.47 369.125 1118.62 376.623C1042.83 391.631 964.225 380.566 891.053 343.722C838.603 317.316 789.534 280.347 741.273 243.386C710.042 219.466 678.011 198.262 643.344 179.876C585.2 149.038 522.148 151.066 466.669 180.019C411.376 208.877 365.062 262.882 323.373 326.716C284.953 385.547 246.672 460.675 193.703 495.803C133.934 535.016 68.8846 508.416 10.5088 539.972" stroke="#8D6B93" stroke-width="0.864782" stroke-miterlimit="10"/>
<path d="M1428.65 129.317C1412.43 207.895 1374.34 273.71 1325.12 302.905C1293.07 321.917 1260.38 319.128 1228.15 338.473C1192.54 359.846 1155 373.7 1116.6 381.963C1039.25 398.606 959.03 387.433 884.6 348.349C832.4 320.94 783.594 281.912 735.892 241.535C705.653 215.942 674.918 191.534 641.352 172.949C583.34 140.831 519.472 145.263 463.506 177.187C407.726 209.374 360.646 267.202 319.508 335.139C281.833 397.356 245.296 474.733 192.522 508.645C132.705 546.791 66.6876 515.412 7.00586 544.097" stroke="#8D6B93" stroke-width="0.864782" stroke-miterlimit="10"/>
<path d="M1434.33 117.573C1417.2 199.775 1377.78 268.776 1327.17 300.232C1294.22 320.71 1260.84 318.656 1227.98 339.636C1191.68 362.591 1153.53 378.382 1114.58 387.298C1035.7 405.813 953.822 394.333 878.148 352.971C826.19 324.571 777.602 283.52 730.514 239.68C701.236 212.418 671.835 184.788 639.362 166.022C581.497 132.581 516.751 139.214 460.346 174.35C404.035 209.62 356.207 271.53 315.646 343.558C278.689 409.186 243.924 488.789 191.341 521.487C131.476 558.56 64.4932 522.412 3.50293 548.221" stroke="#8D6B93" stroke-width="0.864782" stroke-miterlimit="10"/>
<path d="M1440 105.829C1421.98 191.654 1381.21 263.842 1329.21 297.564C1295.37 319.512 1261.34 318.367 1227.81 340.808C1190.86 365.54 1152.05 382.853 1112.56 392.638C1032.11 412.576 948.596 401.278 871.695 357.602C819.966 328.221 771.548 285.181 725.133 237.829C696.775 208.902 668.758 178.034 637.37 159.1C579.67 124.284 514.03 133.169 457.184 171.522C400.337 209.875 351.742 275.88 311.784 351.985C275.522 421.047 242.552 502.851 190.163 534.333C130.247 570.338 62.3016 529.412 0 552.346" stroke="#8D6B93" stroke-width="0.864782" stroke-miterlimit="10"/>
<path d="M1199.79 379.481C1193.54 270.315 1162.92 165.266 1114.91 88.2614C1101.26 66.3521 1085.58 46.1032 1066.96 38.6056C1013.14 16.9471 961.926 92.5247 920.679 137.463C870.897 191.702 821.849 248.013 769.452 295.515C740.036 322.185 705.042 346.494 673.689 326.492C641.939 306.234 626.739 249.241 611.031 200.026C592.726 142.678 569.084 88.4343 537.002 50.2931C504.923 12.1562 463.517 -8.38667 424.661 5.19474C394.233 15.8272 367.796 45.9044 343.978 78.4764C281.394 164.06 230.458 272.028 195.836 392.474" stroke="#8D6B93" stroke-width="0.864782" stroke-miterlimit="10"/>
<path d="M1201.17 374.487C1195.12 268.841 1163.92 169.434 1115.02 92.4467C1101.37 70.9525 1085.87 50.9285 1067.51 43.3184C1014.34 21.2276 963.796 93.1083 922.655 136.49C878.791 182.743 835.469 231.391 789.429 274.561C783.769 279.888 778.077 285.129 772.345 290.266C743.152 316.438 708.578 340.384 677.542 321.467C646.096 302.321 630.68 247.649 614.788 200.488C596.223 145.566 572.515 93.6315 540.667 57.1852C508.737 20.7909 467.806 1.31163 429.373 14.6466C403.255 23.7008 380.048 46.7603 358.89 73.1231C355.613 77.2006 352.406 81.3905 349.211 85.5544C285.83 168.171 235.088 267.768 201.583 384.332" stroke="#8D6B93" stroke-width="0.864782" stroke-miterlimit="10"/>
<path d="M1202.55 369.493C1196.71 267.371 1164.92 173.598 1115.13 96.6366C1101.49 75.5488 1086.17 55.7626 1068.05 48.0358C1015.53 25.5125 965.669 93.7006 924.632 135.526C881.203 179.785 838.265 227.175 792.193 269.632C786.576 274.851 780.926 279.988 775.24 285.029C746.27 310.705 712.114 334.287 681.394 316.456C650.248 298.425 634.617 246.071 618.542 200.968C599.716 148.476 575.943 98.8417 544.325 64.0948C512.543 29.4387 472.092 11.0274 434.079 24.1202C408.194 33.0232 385.14 55.3432 364.082 80.7073C360.819 84.629 357.635 88.6892 354.438 92.6542C290.224 172.314 239.713 263.535 207.323 376.212" stroke="#8D6B93" stroke-width="0.864782" stroke-miterlimit="10"/>
<path d="M1203.94 364.503C1198.29 265.9 1165.93 177.757 1115.24 100.826C1101.61 80.1408 1086.46 60.5924 1068.61 52.7531C1016.73 29.7975 967.552 94.2972 926.61 134.557C883.626 176.828 840.996 222.765 794.959 264.703C789.376 269.792 783.777 274.846 778.136 279.789C749.39 304.967 715.654 328.186 685.25 311.444C654.408 294.525 638.615 244.441 622.3 201.448C603.277 151.317 579.433 103.918 547.99 71.0043C516.411 37.9523 476.382 20.7432 438.794 33.5939C413.144 42.3455 390.244 63.9304 369.282 88.2913C366.029 92.0575 362.872 95.9879 359.675 99.754C294.597 176.456 244.347 259.298 213.076 368.092" stroke="#8D6B93" stroke-width="0.864782" stroke-miterlimit="10"/>
<path d="M1205.32 359.509C1199.88 264.43 1166.95 181.908 1115.35 105.012C1101.73 84.724 1086.75 65.4177 1069.15 57.466C1017.92 34.0737 969.441 94.8852 928.587 133.584C886.055 173.87 843.771 218.48 797.723 259.769C792.177 264.741 786.624 269.701 781.028 274.544C752.505 299.229 719.186 322.081 689.099 306.424C658.558 290.616 642.565 242.832 626.051 201.915C606.786 154.188 582.875 109.072 551.647 77.8965C520.233 46.5395 480.667 30.4416 443.5 43.0458C418.083 51.6461 395.335 72.496 374.475 95.8537C371.235 99.4642 368.099 103.261 364.902 106.836C298.925 180.581 248.97 255.047 218.816 359.954" stroke="#8D6B93" stroke-width="0.864782" stroke-miterlimit="10"/>
<path d="M1206.7 354.515C1201.46 262.956 1167.98 186.051 1115.45 109.198C1101.86 89.3078 1087.04 70.248 1069.7 62.1795C1019.12 38.3548 971.34 95.4823 930.566 132.616C888.494 170.93 846.553 214.204 800.489 254.836C794.983 259.691 789.475 264.556 783.924 269.299C755.625 293.487 722.726 315.976 692.956 301.409C662.715 286.712 646.522 241.228 629.809 202.391C610.302 157.063 586.319 114.235 555.31 84.8022C524.058 55.1402 484.954 40.1535 448.21 52.5156C423.028 60.9602 400.431 81.075 379.669 103.434C376.44 106.889 373.325 110.555 370.131 113.932C303.22 184.711 253.595 250.806 224.559 351.825" stroke="#8D6B93" stroke-width="0.864782" stroke-miterlimit="10"/>
<path d="M1208.09 349.521C1203.05 261.482 1169.02 190.185 1115.56 113.388C1101.98 93.8869 1087.33 75.0779 1070.25 66.897C1020.31 42.6399 973.24 96.0878 932.541 131.648C890.937 167.994 849.329 209.928 803.252 249.907C797.786 254.65 792.323 259.41 786.817 264.063C758.741 287.754 726.263 309.879 696.806 296.397C666.868 282.816 650.474 239.629 633.561 202.871C613.809 159.943 589.757 119.407 558.968 91.712C527.876 63.7449 489.241 49.8652 452.917 61.9894C427.971 70.2827 405.526 89.6624 384.862 111.018C381.647 114.317 378.551 117.846 375.362 121.032C307.485 188.836 258.225 246.573 230.303 343.705" stroke="#8D6B93" stroke-width="0.864782" stroke-miterlimit="10"/>
<path d="M1209.47 344.526C1204.63 260.011 1170.07 194.305 1115.67 117.573C1102.12 98.4611 1087.61 79.9635 1070.8 71.6097C1021.48 47.0888 975.156 96.6927 934.523 130.674C893.398 165.067 852.117 205.651 806.021 244.973C800.595 249.599 795.177 254.265 789.717 258.818C761.864 282.015 729.804 303.773 700.666 291.377C671.029 278.907 654.432 238.015 637.325 203.338C617.329 162.81 593.205 124.56 562.637 98.6082C531.701 72.3404 493.537 59.5676 457.636 71.4454C432.924 79.5873 410.657 98.3012 390.065 118.58C386.863 121.732 383.783 125.118 380.599 128.115C311.723 192.926 262.858 242.318 236.054 335.567" stroke="#8D6B93" stroke-width="0.864782" stroke-miterlimit="10"/>
<path d="M1210.85 339.532C1206.22 258.536 1171.12 198.417 1115.78 121.758C1102.25 103.027 1087.9 84.7974 1071.35 76.3182C1022.67 51.3822 977.073 97.3022 936.499 129.701C895.858 162.152 854.899 201.383 808.784 240.034C803.398 244.549 798.026 249.115 792.608 253.568C764.978 276.269 733.338 297.664 704.515 286.357C675.181 274.998 658.376 236.402 641.075 203.809C620.832 165.676 596.639 129.727 566.294 105.505C535.515 80.9362 497.819 69.2703 462.341 80.9059C437.863 88.8965 415.75 106.88 395.257 126.151C392.068 129.152 389.001 132.395 385.828 135.201C315.915 196.994 267.484 238.071 241.796 327.434" stroke="#8D6B93" stroke-width="0.864782" stroke-miterlimit="10"/>
<path d="M1212.24 334.538C1207.8 257.066 1172.18 202.516 1115.89 125.944C1102.39 107.593 1088.19 89.6315 1071.9 81.0312C1023.86 55.6801 979.002 97.9204 938.479 128.728C898.333 159.246 857.687 197.111 811.551 235.101C806.205 239.503 800.877 243.969 795.505 248.323C768.102 270.527 736.876 291.558 708.372 281.336C679.338 271.093 662.329 234.79 644.834 204.28C624.34 168.543 600.076 134.89 569.96 112.406C539.333 89.5407 502.112 78.9774 467.055 90.3666C442.811 98.2015 420.852 115.463 400.458 133.722C397.279 136.568 394.228 139.668 391.063 142.288C320.083 201.033 272.115 233.821 247.547 319.3" stroke="#8D6B93" stroke-width="0.864782" stroke-miterlimit="10"/>
<path d="M1213.62 329.549C1209.39 255.597 1173.25 206.611 1115.99 130.138C1102.53 112.164 1088.48 94.4705 1072.45 85.7535C1025.05 59.983 980.939 98.5609 940.455 127.765C900.812 156.367 860.472 192.857 814.315 230.172C809.011 234.461 803.724 238.829 798.399 243.088C771.219 264.798 740.414 285.466 712.224 276.33C683.493 267.198 666.274 233.186 648.587 204.76C627.841 171.419 603.507 140.07 573.617 119.316C543.142 98.1545 506.395 88.6937 471.76 99.8408C447.75 107.524 425.946 124.055 405.647 141.307C402.482 143.997 399.442 146.954 396.287 149.393C324.206 205.059 276.738 229.593 253.284 311.185" stroke="#8D6B93" stroke-width="0.864782" stroke-miterlimit="10"/>
<path d="M1215 324.554C1210.97 254.122 1174.33 210.688 1116.1 134.323C1102.67 116.717 1088.77 99.3041 1073 90.4661C1026.25 64.2761 982.883 99.2004 942.434 126.791C903.301 153.487 863.262 188.597 817.081 225.238C811.817 229.415 806.575 233.683 801.295 237.842C774.339 259.055 743.951 279.36 716.08 271.309C687.65 263.288 670.221 231.573 652.345 205.231C631.344 174.281 606.938 145.241 577.282 126.216C546.956 106.759 510.688 98.3961 476.476 109.305C452.7 116.838 431.05 132.637 410.849 148.882C407.695 151.416 404.668 154.231 401.527 156.484C328.313 209.023 281.374 225.35 259.037 303.055" stroke="#8D6B93" stroke-width="0.864782" stroke-miterlimit="10"/>
<path d="M1216.39 319.561C1212.56 252.652 1175.42 214.749 1116.21 138.51C1102.82 121.27 1089.06 104.135 1073.55 95.1799C1027.44 68.5662 984.832 99.8541 944.409 125.823C905.795 150.634 866.048 184.348 819.843 220.31C814.62 224.374 809.423 228.542 804.186 232.602C777.453 253.318 747.493 273.165 719.928 266.299C691.809 259.294 674.157 229.969 656.097 205.712C634.835 177.157 610.363 150.427 580.938 133.122C550.758 115.377 514.969 108.108 481.18 118.771C457.639 126.152 436.14 141.221 416.038 156.458C412.897 158.841 409.878 161.5 406.75 163.576C332.376 212.942 285.993 221.105 264.773 294.927" stroke="#8D6B93" stroke-width="0.864782" stroke-miterlimit="10"/>
<path d="M1217.77 314.566C1214.14 251.177 1176.52 218.796 1116.32 142.695C1102.97 125.819 1089.35 108.964 1074.1 99.8923C1028.63 72.8549 986.793 100.519 946.391 124.85C908.304 147.788 868.844 180.092 822.613 215.371C817.432 219.323 812.277 223.392 807.085 227.353C780.576 247.575 751.034 267.05 723.788 261.274C695.97 255.376 678.099 228.351 659.859 206.174C638.336 180.014 613.795 155.593 584.607 140.014C554.57 123.981 519.265 117.806 485.896 128.227C462.589 135.452 441.242 149.795 421.241 164.025C418.11 166.251 415.099 168.759 411.988 170.662C336.425 216.798 290.627 216.858 270.524 286.793" stroke="#8D6B93" stroke-width="0.864782" stroke-miterlimit="10"/>
<path d="M1219.15 309.571C1215.72 249.707 1177.62 222.825 1116.42 146.884C1103.11 130.371 1089.64 113.798 1074.65 104.609C1029.82 77.1439 988.758 101.202 948.367 123.881C910.812 144.964 871.637 175.85 825.376 210.441C820.235 214.285 815.125 218.25 809.979 222.116C783.693 241.842 754.571 260.949 727.639 256.262C700.121 251.475 682.032 226.747 663.611 206.654C641.823 182.889 617.215 160.786 588.263 146.923C558.368 132.607 523.55 127.522 490.601 137.7C467.528 144.774 446.332 158.386 426.429 171.608C423.312 173.68 420.309 176.036 417.214 177.761C340.438 220.603 295.251 212.621 276.264 278.673" stroke="#8D6B93" stroke-width="0.864782" stroke-miterlimit="10"/>
<path d="M1220.53 304.577C1217.31 248.232 1178.73 226.842 1116.53 151.07C1103.27 134.911 1089.93 118.623 1075.2 109.322C1031.01 81.4288 990.734 101.903 950.346 122.912C913.333 142.162 874.432 171.613 828.142 205.512C823.043 209.244 817.974 213.109 812.875 216.875C786.812 236.104 758.109 254.844 731.495 251.25C704.278 247.571 685.969 225.147 667.369 207.134C645.312 185.769 620.64 165.983 591.929 153.833C562.174 141.241 527.84 137.237 495.316 147.17C472.477 154.092 451.434 166.973 431.632 179.184C428.525 181.099 425.528 183.296 422.45 184.852C344.441 224.334 299.885 208.379 282.017 270.544" stroke="#8D6B93" stroke-width="0.864782" stroke-miterlimit="10"/>
<path d="M1221.92 299.584C1218.89 246.763 1179.85 230.838 1116.64 155.256C1103.42 139.447 1090.22 123.453 1075.74 114.036C1032.2 85.7143 992.712 102.625 952.321 121.94C915.856 139.378 877.227 167.376 830.905 200.575C825.849 204.198 820.822 207.955 815.765 211.626C789.926 230.362 761.64 248.734 735.343 246.226C708.427 243.658 689.891 223.539 671.119 207.597C648.79 188.636 624.055 171.168 595.585 160.721C565.969 149.855 532.124 146.928 500.021 156.622C477.418 163.389 456.524 175.539 436.82 186.747C433.724 188.507 430.735 190.543 427.673 191.935C348.411 227.975 304.504 204.125 287.753 262.407" stroke="#8D6B93" stroke-width="0.864782" stroke-miterlimit="10"/>
<path d="M1223.3 294.59C1220.48 245.288 1180.98 234.82 1116.75 159.441C1103.57 143.983 1090.51 128.279 1076.29 118.745C1033.4 89.9864 994.702 103.36 954.301 120.963C918.389 136.611 880.028 163.138 833.671 195.637C828.658 199.152 823.674 202.806 818.663 206.377C793.047 224.616 765.175 242.625 739.2 241.207C712.584 239.754 693.823 221.939 674.88 208.068C652.275 191.516 627.478 176.365 599.251 167.622C569.77 158.49 536.415 156.635 504.734 166.087C482.366 172.703 461.623 184.118 442.021 194.322C438.935 195.927 435.951 197.799 432.911 199.027C352.38 231.547 309.14 199.883 293.504 254.278" stroke="#8D6B93" stroke-width="0.864782" stroke-miterlimit="10"/>
<path d="M1224.68 289.6C1222.06 243.819 1182.12 238.781 1116.85 163.636C1103.73 148.524 1090.8 133.113 1076.84 123.467C1034.59 94.2761 996.692 104.135 956.277 120.003C920.924 133.883 882.826 158.927 836.435 190.712C831.461 194.12 826.522 197.669 821.556 201.146C796.164 218.887 768.71 236.533 743.052 236.2C716.736 235.858 697.743 220.357 678.633 208.553C655.749 194.418 630.896 181.585 602.911 174.537C573.566 167.147 540.702 166.356 509.445 175.561C487.311 182.026 466.716 192.706 447.218 201.907C444.146 203.355 441.164 205.059 438.143 206.127C356.332 235.041 313.768 195.646 299.249 246.158" stroke="#8D6B93" stroke-width="0.864782" stroke-miterlimit="10"/>
<path d="M1226.07 284.606C1223.65 242.348 1183.26 242.725 1116.96 167.822C1103.88 153.047 1091.1 137.939 1077.39 128.18C1035.79 98.5482 998.692 104.926 958.256 119.031C923.464 131.163 885.627 154.707 839.201 185.779C834.27 189.078 829.373 192.524 824.453 195.901C799.284 213.149 772.248 230.427 746.908 231.18C720.891 231.954 701.669 218.766 682.391 209.02C659.228 197.311 634.314 186.791 606.573 181.433C577.364 175.79 544.989 176.059 514.155 185.022C492.255 191.335 471.812 201.276 452.412 209.478C449.351 210.771 446.377 212.306 443.372 213.218C360.276 238.435 318.394 191.404 304.991 238.029" stroke="#8D6B93" stroke-width="0.864782" stroke-miterlimit="10"/>
<path d="M1227.45 279.611C1225.23 240.873 1184.42 246.641 1117.07 172.006C1104.04 157.569 1091.39 142.764 1077.94 132.892C1036.98 102.824 1000.69 105.747 960.232 118.057C926.007 128.469 888.43 150.491 841.964 180.844C837.076 184.036 832.219 187.378 827.347 190.655C802.401 207.406 775.782 224.326 750.76 226.163C725.043 228.049 705.589 217.191 686.144 209.495C662.699 200.216 637.729 192.013 610.233 188.334C581.159 184.442 549.277 185.765 518.863 194.486C497.197 200.644 476.903 209.849 457.607 217.053C454.556 218.19 451.588 219.552 448.604 220.309C364.221 241.729 323.022 187.157 310.736 229.899" stroke="#8D6B93" stroke-width="0.864782" stroke-miterlimit="10"/>
<path d="M1228.83 274.617C1226.82 239.403 1185.58 250.542 1117.18 176.192C1104.2 162.092 1091.68 147.589 1078.49 137.605C1038.18 107.091 1002.69 106.599 962.211 117.084C928.552 125.801 891.233 146.283 844.731 175.907C839.885 178.994 835.071 182.228 830.241 185.406C805.518 201.66 779.317 218.22 754.614 221.139C729.197 224.144 709.513 215.613 689.9 209.962C666.175 203.126 641.147 197.232 613.895 195.23C584.955 193.103 553.565 195.468 523.573 203.943C502.141 209.949 481.999 218.415 462.801 224.62C459.764 225.601 456.798 226.786 453.833 227.391C368.165 244.92 327.65 182.907 316.481 221.762" stroke="#8D6B93" stroke-width="0.864782" stroke-miterlimit="10"/>
<path d="M1230.22 269.623C1228.4 237.929 1186.75 254.416 1117.28 180.382C1104.36 166.61 1091.97 152.415 1079.04 142.323C1039.37 111.364 1004.69 107.489 964.187 116.12C931.094 123.168 894.036 142.094 847.494 170.982C842.69 173.961 837.919 177.091 833.134 180.17C808.635 195.931 782.852 212.128 758.467 216.132C733.351 220.253 713.435 214.056 693.658 210.442C669.651 206.057 644.567 202.477 617.557 202.14C588.752 201.781 557.854 205.179 528.286 213.417C507.088 219.271 487.095 226.994 468.001 232.204C464.974 233.03 462.014 234.037 459.069 234.496C372.125 248.029 332.283 178.678 322.231 213.646" stroke="#8D6B93" stroke-width="0.864782" stroke-miterlimit="10"/>
<path d="M1231.6 264.629C1229.99 236.458 1187.92 258.264 1117.39 184.567C1104.52 171.124 1092.26 157.236 1079.59 147.036C1040.57 115.627 1006.69 108.41 966.166 115.147C933.64 120.552 896.845 137.899 850.26 166.048C845.499 168.923 840.77 171.946 836.03 174.929C811.755 190.193 786.389 206.035 762.321 211.116C737.506 216.357 717.358 212.5 697.413 210.917C673.127 208.989 647.985 207.717 621.22 209.045C592.553 210.463 562.144 214.891 532.996 222.886C512.032 228.589 492.188 235.568 473.195 239.784C470.179 240.454 467.227 241.28 464.298 241.591C376.091 251.03 336.908 174.436 327.974 205.521" stroke="#8D6B93" stroke-width="0.864782" stroke-miterlimit="10"/>
<path d="M1232.98 259.635C1231.57 234.985 1189.11 262.091 1117.5 188.754C1104.69 175.63 1092.55 162.058 1080.14 151.749C1041.77 119.891 1008.7 109.371 968.143 114.175C936.181 117.962 899.652 133.71 853.024 161.111C848.306 163.882 843.619 166.797 838.925 169.681C814.876 184.447 789.927 199.931 766.176 206.092C741.661 212.453 721.288 210.944 701.169 211.385C676.609 211.921 651.406 212.963 624.88 215.938C596.352 219.142 566.43 224.59 537.705 232.339C516.975 237.886 497.282 244.126 478.39 247.343C475.385 247.853 472.438 248.497 469.528 248.666C380.071 253.911 341.534 170.178 333.717 197.375" stroke="#8D6B93" stroke-width="0.864782" stroke-miterlimit="10"/>
<path d="M1234.37 254.645C1233.16 233.514 1190.3 265.896 1117.61 192.943C1104.85 180.14 1092.85 166.883 1080.69 156.462C1042.97 124.15 1010.69 110.369 970.121 113.206C938.718 115.402 902.46 129.537 855.79 156.181C851.114 158.849 846.47 161.651 841.818 164.44C817.993 178.713 793.47 193.912 770.027 201.081C745.823 208.634 725.213 209.404 704.922 211.86C680.088 214.869 654.826 218.216 628.54 222.843C600.153 227.837 570.717 234.301 542.412 241.807C521.917 247.204 502.373 252.695 483.582 254.922C480.59 255.276 477.648 255.735 474.757 255.765C384.073 256.712 346.162 165.94 339.459 189.255" stroke="#8D6B93" stroke-width="0.864782" stroke-miterlimit="10"/>
<path d="M1235.75 249.651C1234.74 232.044 1191.5 269.671 1117.71 197.133C1105.01 184.645 1093.14 171.708 1081.23 161.18C1044.17 128.413 1012.68 111.411 972.097 112.237C941.247 112.864 905.268 125.369 858.553 151.248C853.922 153.812 849.316 156.505 844.712 159.195C821.109 172.971 797.007 187.806 773.88 196.061C749.977 204.73 729.146 207.856 708.677 212.331C683.577 217.818 658.251 223.478 632.202 229.744C603.958 236.537 575.004 244.008 547.125 251.273C526.866 256.517 507.471 261.261 488.781 262.497C485.799 262.696 482.868 262.964 479.991 262.856C388.108 259.406 350.791 161.698 345.206 181.126" stroke="#8D6B93" stroke-width="0.864782" stroke-miterlimit="10"/>
<path d="M1237.13 244.657C1236.33 230.569 1192.7 273.415 1117.82 201.318C1105.18 189.146 1093.43 176.525 1081.78 165.892C1045.38 132.663 1014.66 112.488 974.079 111.264C943.777 110.352 908.086 121.205 861.322 146.314C856.734 148.778 852.17 151.36 847.611 153.954C824.232 167.233 800.547 181.705 777.738 191.049C754.138 200.83 733.086 206.321 712.438 212.811C687.073 220.78 661.685 228.749 635.867 236.649C607.773 245.249 579.298 253.715 551.839 260.737C531.813 265.831 512.57 269.826 493.981 270.073C491.011 270.112 488.09 270.194 485.226 269.947C392.172 262.009 355.423 157.452 350.957 172.997" stroke="#8D6B93" stroke-width="0.864782" stroke-miterlimit="10"/>
<path d="M1238.51 239.663C1237.91 229.1 1193.91 277.134 1117.93 205.504C1105.35 193.639 1093.74 181.312 1082.33 170.606C1046.62 136.814 1016.62 113.608 976.055 110.296C946.287 107.861 910.894 117.054 864.086 141.385C859.54 143.746 855.019 146.219 850.505 148.714C827.35 161.5 804.085 175.604 781.592 186.033C758.292 196.925 737.025 204.786 716.194 213.283C690.57 223.734 665.119 234.02 639.53 243.55C611.584 253.962 583.585 263.423 556.549 270.203C536.758 275.141 517.666 278.336 499.176 277.648C496.218 277.523 493.306 277.419 490.457 277.043C396.268 264.525 360.051 153.215 356.702 164.872" stroke="#8D6B93" stroke-width="0.864782" stroke-miterlimit="10"/>
<path d="M1239.9 234.669C1239.49 227.625 1195.13 280.822 1118.04 209.689C1105.51 198.132 1094.03 186.137 1082.88 175.319C1047.81 141.09 1018.58 114.771 978.034 109.323C948.79 105.392 913.708 112.912 866.852 136.447C862.349 138.708 857.87 141.069 853.399 143.464C830.466 155.753 807.619 169.494 785.443 181.009C762.444 193.012 740.966 203.242 719.947 213.749C694.067 226.687 668.553 239.286 643.187 250.447C615.398 262.675 587.87 273.125 561.254 279.663C541.697 284.45 522.757 286.91 504.367 285.219C501.42 284.938 498.521 284.644 495.683 284.13C400.393 266.947 364.676 148.964 362.441 156.739" stroke="#8D6B93" stroke-width="0.864782" stroke-miterlimit="10"/>
<path d="M1241.28 229.675C1241.08 226.155 1196.36 284.48 1118.15 213.88C1105.68 202.624 1094.33 190.971 1083.44 180.036C1049.01 145.376 1020.52 115.982 980.016 108.354C951.283 102.945 916.544 108.878 869.621 131.518C865.163 133.688 860.724 135.928 856.298 138.224C833.59 150.015 811.163 163.394 789.302 175.998C766.607 189.116 744.93 201.755 723.708 214.23C697.59 229.705 672.014 244.648 646.855 257.356C619.242 271.483 592.166 282.842 565.973 289.133C546.65 293.768 527.864 295.489 509.57 292.8C506.634 292.363 503.748 291.87 500.921 291.226C404.572 269.295 369.309 144.727 368.192 148.61" stroke="#8D6B93" stroke-width="0.864782" stroke-miterlimit="10"/>
<path d="M1242.67 224.681C1242.67 224.681 1197.6 288.104 1118.26 218.065C1038.92 148.026 1007.78 63.3469 872.385 126.584C736.991 189.821 618.694 321.471 514.765 300.371C410.836 279.27 373.938 140.481 373.938 140.481" stroke="#8D6B93" stroke-width="0.864782" stroke-miterlimit="10"/>
<path d="M1302.95 180.52C1294.84 145.103 1271.09 124.067 1247.91 121.326C1224.72 118.584 1201.91 130.834 1180.28 144.709C1135.56 173.399 1092.69 209.745 1047.06 234.379C1001.43 259.012 951.66 271.508 905.277 250.935C876.759 238.287 850.561 213.628 821.73 203.039C763.918 181.8 704.829 219.262 645.953 230.34C601.408 238.72 584.678 203.904 559.866 152.471C535.779 102.543 500.147 67.7006 461.727 56.506C423.307 45.3114 382.451 57.8723 349.196 91.0973" stroke="#8D6B93" stroke-width="0.864782" stroke-miterlimit="10"/>
<path d="M1303.79 175.535C1294.77 142.323 1270.52 122.567 1246.96 121.041C1223.36 119.553 1200.09 132.512 1177.87 146.668C1132.93 175.375 1089.58 210.848 1043.78 233.691C998.141 256.638 948.755 266.865 902.343 246.291C873.924 233.692 847.702 209.845 818.953 199.714C761.34 179.396 702.523 216.283 643.884 227.266C599.599 235.564 582.202 201.868 557.036 151.645C532.792 102.962 497.452 68.423 459.37 58.6337C421.368 48.7492 381.219 62.2787 348.271 95.4907" stroke="#8D6B93" stroke-width="0.864782" stroke-miterlimit="10"/>
<path d="M1304.63 170.545C1294.71 139.543 1269.94 121.058 1246.01 120.747C1222 120.513 1198.27 134.177 1175.46 148.623C1130.31 177.347 1086.46 211.774 1040.5 232.995C994.83 254.088 945.856 262.208 899.417 241.635C871.094 229.087 844.85 206.045 816.181 196.376C758.771 176.979 700.225 213.291 641.82 224.183C597.796 232.399 579.641 199.952 554.211 150.807C529.725 103.486 494.763 69.1322 457.016 60.7438C419.429 52.1695 379.988 66.6676 347.348 99.8666" stroke="#8D6B93" stroke-width="0.864782" stroke-miterlimit="10"/>
<path d="M1305.47 165.555C1294.65 136.758 1269.37 119.553 1245.06 120.457C1220.64 121.477 1196.45 135.85 1173.05 150.577C1127.68 179.318 1083.34 212.789 1037.22 232.299C991.532 251.627 942.952 257.555 896.484 236.977C868.259 224.477 841.994 202.248 813.405 193.042C756.194 174.566 697.919 210.299 639.751 221.104C595.988 229.238 577.125 197.976 551.379 149.976C526.696 103.961 492.053 70.0095 454.655 62.8664C417.474 55.7622 378.749 71.0732 346.417 104.259" stroke="#8D6B93" stroke-width="0.864782" stroke-miterlimit="10"/>
<path d="M1306.31 160.565C1294.58 133.977 1268.79 118.044 1244.12 120.167C1219.29 122.441 1194.64 137.519 1170.64 152.536C1125.05 181.294 1080.23 213.818 1033.94 231.607C988.239 249.175 940.052 252.902 893.555 232.325C865.425 219.872 839.139 198.451 810.632 189.708C753.621 172.153 695.618 207.311 637.686 218.021C594.183 226.072 574.616 195.991 548.553 149.141C523.682 104.428 489.363 70.7747 452.3 64.9807C415.535 59.2342 377.519 75.4661 345.493 108.639" stroke="#8D6B93" stroke-width="0.864782" stroke-miterlimit="10"/>
<path d="M1307.15 155.581C1294.52 131.198 1268.22 116.544 1243.17 119.882C1217.93 123.411 1192.82 139.197 1168.23 154.5C1122.42 183.275 1077.12 214.853 1030.66 230.92C984.944 246.733 937.143 248.259 890.619 227.677C862.588 215.276 836.278 194.664 807.853 186.38C751.044 169.746 693.309 204.324 635.615 214.948C592.373 222.917 572.103 194.02 545.721 148.316C520.661 104.904 486.667 71.5453 449.941 67.1089C413.593 62.7202 376.283 79.8731 344.565 113.038" stroke="#8D6B93" stroke-width="0.864782" stroke-miterlimit="10"/>
<path d="M1308 150.59C1294.46 128.417 1267.64 114.944 1242.22 119.592C1216.56 124.284 1191 140.87 1165.82 156.454C1119.79 185.246 1074.02 215.881 1027.38 230.228C981.658 244.294 934.246 243.606 887.695 223.029C859.76 210.675 833.429 190.872 805.084 183.05C748.474 167.337 691.011 201.34 633.553 211.869C590.571 219.756 569.605 192.039 542.898 147.486C517.655 105.375 483.983 72.3059 447.589 69.2316C411.659 66.1962 375.056 84.2788 343.645 117.426" stroke="#8D6B93" stroke-width="0.864782" stroke-miterlimit="10"/>
<path d="M1308.84 145.6C1294.4 125.632 1267.06 113.43 1241.27 119.302C1215.2 125.239 1189.18 142.539 1163.41 158.412C1117.16 187.222 1070.91 216.923 1024.1 229.536C978.371 241.855 931.339 238.958 884.762 218.376C856.925 206.07 830.57 187.079 802.307 179.716C745.897 164.924 688.705 198.352 631.484 208.79C588.763 216.594 567.105 190.058 540.066 146.651C514.644 105.837 481.289 73.062 445.228 71.3454C409.718 69.6591 373.817 88.6713 342.714 121.81" stroke="#8D6B93" stroke-width="0.864782" stroke-miterlimit="10"/>
<path d="M1309.68 140.611C1294.33 122.852 1266.49 111.917 1240.33 119.013C1213.84 126.199 1187.35 144.122 1161 160.367C1114.5 189.034 1067.81 217.966 1020.83 228.84C975.09 239.425 928.441 234.306 881.834 213.719C854.093 201.461 827.717 183.279 799.537 176.383C743.326 162.507 686.405 195.36 629.418 205.707C586.958 213.434 564.608 188.074 537.239 145.817C511.642 106.296 478.603 73.8107 442.875 73.4648C407.785 73.1232 372.589 93.0694 341.789 126.195" stroke="#8D6B93" stroke-width="0.864782" stroke-miterlimit="10"/>
<path d="M1310.52 135.625C1294.27 120.072 1265.91 110.408 1239.38 118.727C1212.48 127.163 1185.53 145.791 1158.59 162.33C1111.87 191.006 1064.72 219.025 1017.55 228.153C971.807 237.004 925.536 229.657 878.903 209.071C851.26 196.865 824.862 179.491 796.76 173.053C740.751 160.099 684.099 192.377 627.348 202.633C585.149 210.278 562.113 186.094 534.409 144.991C508.639 106.763 475.914 74.5674 440.515 75.5878C405.848 76.5866 371.352 97.4755 340.86 130.584" stroke="#8D6B93" stroke-width="0.864782" stroke-miterlimit="10"/>
<path d="M1311.36 130.635C1294.21 117.292 1265.34 108.895 1238.43 118.437C1211.12 128.123 1183.71 147.455 1156.18 164.288C1109.25 192.973 1061.62 220.084 1014.27 227.461C968.53 234.591 922.637 225.009 875.974 204.423C848.427 192.264 822.008 175.699 793.988 169.723C738.179 157.69 681.798 189.389 625.284 199.558C583.345 207.121 559.628 184.109 531.582 144.165C505.644 107.221 473.227 75.3194 438.158 77.7149C403.914 80.0498 370.12 101.881 339.935 134.981" stroke="#8D6B93" stroke-width="0.864782" stroke-miterlimit="10"/>
<path d="M1312.21 125.646C1294.15 114.507 1264.76 107.386 1237.48 118.148C1209.76 129.083 1181.89 149.124 1153.77 166.243C1106.62 194.941 1058.52 221.143 1010.99 226.769C965.251 232.178 919.735 220.357 873.043 199.77C845.595 187.659 819.152 171.903 791.214 166.39C735.604 155.277 679.495 186.401 623.217 196.476C581.539 203.956 557.144 182.112 528.754 143.33C502.652 107.671 470.543 76.059 435.805 79.8295C401.984 83.5005 368.888 106.274 339.012 139.361" stroke="#8D6B93" stroke-width="0.864782" stroke-miterlimit="10"/>
<path d="M1313.05 120.655C1294.08 111.726 1264.18 105.88 1236.54 117.858C1208.4 130.047 1180.08 150.793 1151.36 168.201C1103.99 196.912 1055.43 222.215 1007.71 226.077C961.969 229.778 916.828 215.708 870.11 195.117C842.757 183.058 816.293 168.11 788.438 163.06C733.027 152.868 677.189 183.412 621.149 193.401C579.731 200.799 554.663 180.118 525.925 142.5C499.66 108.12 467.858 76.7978 433.446 81.9519C400.05 86.9504 367.655 110.68 338.084 143.754" stroke="#8D6B93" stroke-width="0.864782" stroke-miterlimit="10"/>
<path d="M1313.89 115.67C1294.02 108.951 1263.61 104.376 1235.59 117.573C1207.04 131.016 1178.26 152.467 1148.95 170.16C1101.36 198.888 1052.34 223.297 1004.43 225.385C958.695 227.378 913.929 211.056 867.184 190.465C839.93 178.453 813.442 164.314 785.666 159.726C730.458 150.456 674.889 180.425 619.085 190.318C577.928 197.634 552.187 178.112 523.1 141.665C496.679 108.562 465.177 77.5289 431.092 84.0667C398.122 90.3926 366.424 115.073 337.161 148.134" stroke="#8D6B93" stroke-width="0.864782" stroke-miterlimit="10"/>
<path d="M1314.73 110.68C1293.96 106.166 1263.03 102.871 1234.64 117.283C1205.68 131.984 1176.44 154.135 1146.54 172.119C1098.73 200.864 1049.25 224.382 1001.15 224.693C955.418 224.991 911.024 206.407 864.253 185.812C837.094 173.848 810.585 160.522 782.892 156.392C727.883 148.043 672.585 177.437 617.018 187.239C576.122 194.473 549.716 176.105 520.27 140.835C493.694 109.002 462.493 78.2594 428.733 86.1895C396.188 93.8341 365.186 119.475 336.232 152.523" stroke="#8D6B93" stroke-width="0.864782" stroke-miterlimit="10"/>
<path d="M1315.57 105.691C1293.89 103.386 1262.46 101.367 1233.69 116.989C1204.32 132.944 1174.62 155.801 1144.13 174.073C1096.11 202.84 1046.15 225.472 997.875 224.002C952.143 222.609 908.125 201.759 861.324 181.165C834.264 169.252 807.733 156.73 780.12 153.064C725.311 145.635 670.283 174.45 614.953 184.161C574.318 191.313 547.247 174.095 517.445 140.005C490.72 109.435 459.811 78.9863 426.381 88.313C394.259 97.2722 363.959 123.881 335.312 156.916" stroke="#8D6B93" stroke-width="0.864782" stroke-miterlimit="10"/>
<path d="M1316.41 100.7C1293.83 100.601 1261.88 99.8616 1232.75 116.699C1202.96 133.912 1172.81 157.473 1141.71 176.027C1093.48 204.812 1043.06 226.565 994.593 223.305C948.861 220.226 905.22 197.102 858.39 176.507C831.426 164.642 804.874 152.933 777.343 149.729C722.736 143.217 667.978 171.461 612.884 181.082C572.509 188.152 544.779 172.075 514.615 139.175C487.741 109.863 457.125 79.7078 424.022 90.4311C392.326 100.7 362.723 128.278 334.381 161.3" stroke="#8D6B93" stroke-width="0.864782" stroke-miterlimit="10"/>
<path d="M1317.26 95.7151C1293.77 97.8252 1261.31 98.3657 1231.8 116.414C1201.6 134.885 1170.99 159.151 1139.3 177.99C1090.86 206.796 1039.97 227.677 991.316 222.618C945.587 217.861 902.319 192.458 855.462 171.859C828.596 160.042 802.02 149.141 774.569 146.4C720.162 140.809 665.675 168.474 610.815 178.003C570.704 184.991 542.314 170.047 511.783 138.34C484.765 110.278 454.436 80.4171 421.66 92.55C390.39 104.125 361.486 132.676 333.45 165.689" stroke="#8D6B93" stroke-width="0.864782" stroke-miterlimit="10"/>
<path d="M1318.1 90.7258C1293.7 95.0411 1260.73 96.8615 1230.85 116.124C1200.24 135.854 1169.17 160.825 1136.89 179.95C1088.23 208.782 1036.87 228.793 988.034 221.926C942.308 215.497 899.414 187.806 852.529 167.207C825.758 155.442 799.161 145.35 771.792 143.067C717.584 138.397 663.368 165.486 608.746 174.925C568.895 181.831 539.851 168.016 508.952 137.511C481.791 110.694 451.75 81.1267 419.303 94.6692C388.456 107.546 360.252 137.078 332.524 170.074" stroke="#8D6B93" stroke-width="0.864782" stroke-miterlimit="10"/>
<path d="M1318.94 85.7361C1293.64 92.2609 1260.16 95.3611 1229.9 115.835C1198.89 136.827 1167.38 162.607 1134.48 181.904C1085.64 210.918 1033.78 229.908 984.76 221.23C939.034 213.136 896.516 183.154 849.603 162.555C822.931 150.837 796.31 141.553 769.024 139.733C715.015 135.984 661.071 162.498 606.685 171.847C567.094 178.67 537.399 165.975 506.131 136.68C478.831 111.104 449.072 81.8316 416.953 96.7923C386.528 110.962 359.026 141.48 331.604 174.463" stroke="#8D6B93" stroke-width="0.864782" stroke-miterlimit="10"/>
<path d="M1319.79 80.7456C1293.58 89.4756 1259.61 93.9508 1228.96 115.544C1197.56 137.89 1165.57 164.275 1132.08 183.862C1083.02 212.893 1030.68 231.036 981.481 220.542C935.755 210.787 893.614 178.505 846.673 157.906C820.097 146.236 793.454 137.765 766.248 136.407C712.441 133.579 658.765 159.514 604.616 168.772C565.286 175.513 534.941 163.929 503.301 135.854C475.864 111.51 446.383 82.5357 414.594 98.9147C384.592 114.377 357.79 145.881 330.677 178.855" stroke="#8D6B93" stroke-width="0.864782" stroke-miterlimit="10"/>
<path d="M1320.63 75.7603C1293.52 86.6997 1259.04 92.4506 1228.01 115.259C1196.19 138.859 1163.75 165.953 1129.66 185.821C1080.39 214.869 1027.59 232.169 978.202 219.85C932.473 208.444 890.71 173.857 843.744 153.253C817.267 141.631 790.6 133.969 763.476 133.074C709.869 131.167 656.465 156.527 602.552 165.693C563.483 172.352 532.492 161.867 500.474 135.024C472.901 111.899 443.694 83.232 412.24 101.038C382.659 117.784 356.561 150.283 329.754 183.244" stroke="#8D6B93" stroke-width="0.864782" stroke-miterlimit="10"/>
<path d="M1321.47 70.7705C1293.46 83.9152 1258.46 90.9415 1227.06 114.97C1194.84 139.828 1161.93 167.622 1127.25 187.78C1077.76 216.845 1024.49 233.306 974.922 219.158C929.191 206.105 887.808 169.209 840.813 148.601C814.431 137.03 787.746 130.177 760.702 129.74C707.294 128.754 654.161 153.534 600.485 162.61C561.677 169.187 530.039 159.795 497.646 134.185C469.937 112.28 441.002 83.9109 409.883 103.152C380.717 121.183 355.324 154.68 328.825 187.629" stroke="#8D6B93" stroke-width="0.864782" stroke-miterlimit="10"/>
<path d="M1322.31 65.7808C1293.39 81.135 1257.89 89.4369 1226.12 114.68C1193.48 140.792 1160.11 169.295 1124.84 189.739C1075.13 218.821 1021.38 234.452 971.645 218.467C925.909 203.77 884.909 164.556 837.885 143.948C811.601 132.425 784.892 126.38 757.931 126.406C704.723 126.341 651.861 150.547 598.421 159.532C559.874 166.026 527.593 157.716 494.822 133.355C466.98 112.656 438.313 84.5984 407.53 105.271C378.783 124.577 354.096 159.078 327.905 192.013" stroke="#8D6B93" stroke-width="0.864782" stroke-miterlimit="10"/>
<path d="M1323.15 60.791C1293.33 78.3504 1257.31 87.9279 1225.17 114.39C1192.12 141.756 1158.3 170.964 1122.43 191.693C1072.51 220.789 1018.28 235.602 968.366 217.771C922.621 201.435 882.004 159.904 834.954 139.296C808.766 127.82 782.036 122.584 755.154 123.073C702.148 123.924 649.555 147.559 596.352 156.449C558.065 162.861 525.14 155.623 491.989 132.52C464.014 113.02 435.614 85.273 405.168 107.39C376.834 127.967 352.859 163.475 326.972 196.402" stroke="#8D6B93" stroke-width="0.864782" stroke-miterlimit="10"/>
<path d="M1323.99 55.8057C1293.26 75.5746 1256.74 86.4276 1224.22 114.105C1190.76 142.725 1156.48 172.642 1120.02 193.656C1069.88 222.769 1015.18 236.761 965.086 217.088C919.333 199.117 879.102 155.26 832.022 134.652C805.933 123.228 779.178 118.801 752.379 119.752C699.573 121.525 647.25 144.58 594.284 153.383C556.258 159.714 522.692 153.539 489.161 131.703C461.053 113.396 432.916 85.9649 402.813 109.522C374.891 131.37 351.626 167.89 326.048 200.799" stroke="#8D6B93" stroke-width="0.864782" stroke-miterlimit="10"/>
<path d="M1324.84 50.8159C1293.2 72.79 1256.17 84.9186 1223.27 113.815C1189.4 143.689 1154.66 174.311 1117.61 195.611C1067.25 224.741 1012.07 237.92 961.807 216.391C916.043 196.791 876.198 150.607 829.091 129.995C803.098 118.619 776.322 115 749.605 116.414C696.998 119.108 644.948 141.588 592.216 150.3C554.45 156.549 520.241 151.425 486.332 130.864C458.091 113.742 430.214 86.6309 400.454 111.636C372.942 134.752 350.393 172.283 325.12 205.18" stroke="#8D6B93" stroke-width="0.864782" stroke-miterlimit="10"/>
<path d="M1325.68 45.8262C1293.14 70.0098 1255.59 83.4139 1222.32 113.521C1188.05 144.649 1152.84 175.98 1115.2 197.565C1064.62 226.713 1008.96 239.079 958.524 215.695C912.747 194.469 873.293 145.951 826.157 125.339C800.262 114.01 773.463 111.204 746.828 113.076C694.423 116.691 642.641 138.591 590.146 147.213C552.641 153.383 517.791 149.297 483.501 130.026C455.125 114.079 427.509 87.2925 398.095 113.746C370.989 138.129 349.156 176.672 324.191 209.56" stroke="#8D6B93" stroke-width="0.864782" stroke-miterlimit="10"/>
<path d="M1326.52 40.8364C1293.08 67.2253 1255.02 81.9049 1221.38 113.232C1186.69 145.613 1151.03 177.654 1112.79 199.524C1062 228.689 1005.85 240.251 955.248 215.004C909.455 192.156 870.395 141.302 823.23 120.69C797.43 109.414 770.612 107.412 744.055 109.747C691.85 114.282 640.341 135.608 588.08 144.139C550.836 150.227 515.342 147.174 480.672 129.2C452.163 114.421 424.802 87.9627 395.739 115.874C369.038 141.519 347.925 181.082 323.267 213.953" stroke="#8D6B93" stroke-width="0.864782" stroke-miterlimit="10"/>
<path d="M1327.36 35.8511C1293.02 64.4494 1254.45 80.4046 1220.43 112.946C1185.33 146.586 1149.21 179.327 1110.38 201.483C1059.37 230.665 1002.7 241.587 951.969 214.316C906.128 189.994 867.49 136.659 820.301 116.042C794.6 104.813 767.758 103.624 741.283 106.422C689.278 111.878 638.041 132.629 586.016 141.065C549.033 147.071 512.895 145.034 477.848 128.374C449.202 114.754 422.094 88.6331 393.385 118.001C367.086 144.904 346.694 185.489 322.344 218.35" stroke="#8D6B93" stroke-width="0.864782" stroke-miterlimit="10"/>
<path d="M1328.2 30.8606C1292.95 61.6685 1253.87 78.8949 1219.48 112.656C1183.97 147.55 1147.39 181 1107.97 203.441C1056.74 232.64 999.594 242.685 948.689 213.624C902.841 187.615 864.588 132.006 817.37 111.389C791.765 100.207 764.902 99.827 738.509 103.087C686.703 109.465 635.737 129.636 583.949 137.985C547.227 143.909 510.442 142.884 475.02 127.543C446.237 115.077 419.357 89.2377 391.028 120.119C365.104 148.229 345.462 189.885 321.418 222.734" stroke="#8D6B93" stroke-width="0.864782" stroke-miterlimit="10"/>
<path d="M1329.05 25.8711C1292.89 58.8842 1253.3 77.3905 1218.54 112.367C1182.61 148.515 1145.58 182.669 1105.56 205.4C1054.12 234.617 996.495 243.788 945.412 212.932C899.556 185.233 861.686 127.358 814.442 106.737C788.935 95.6071 762.048 96.0352 735.737 99.7538C684.133 107.053 633.436 126.648 581.885 134.903C545.423 140.744 507.993 140.718 472.193 126.705C443.271 115.385 416.665 89.9471 388.672 122.234C363.165 151.654 344.228 194.283 320.492 227.115" stroke="#8D6B93" stroke-width="0.864782" stroke-miterlimit="10"/>
</g>
</svg>
