<svg width="34" height="34" viewBox="0 0 34 34" fill="none" xmlns="http://www.w3.org/2000/svg">
<path d="M32 20.7583C27.2342 22.6854 22.1407 23.673 17 23.6666C11.695 23.6666 6.63333 22.6333 2 20.7583" stroke="#21312A" stroke-width="3.5" stroke-linecap="round" stroke-linejoin="round"/>
<path d="M17 18.6667H17.0192" stroke="#21312A" stroke-width="3.5" stroke-linecap="round" stroke-linejoin="round"/>
<path d="M23.6663 5.33333V8.66667H10.333V5.33333C10.333 4.44928 10.6842 3.60143 11.3093 2.97631C11.9344 2.35119 12.7823 2 13.6663 2H20.333C21.2171 2 22.0649 2.35119 22.69 2.97631C23.3152 3.60143 23.6663 4.44928 23.6663 5.33333Z" stroke="#21312A" stroke-width="3.5" stroke-linecap="round" stroke-linejoin="round"/>
<path d="M28.6667 32.0001H5.33333C4.44928 32.0001 3.60143 31.6489 2.97631 31.0238C2.35119 30.3986 2 29.5508 2 28.6667V12.0001C2 11.116 2.35119 10.2682 2.97631 9.64306C3.60143 9.01794 4.44928 8.66675 5.33333 8.66675H28.6667C29.5507 8.66675 30.3986 9.01794 31.0237 9.64306C31.6488 10.2682 32 11.116 32 12.0001V28.6667C32 29.5508 31.6488 30.3986 31.0237 31.0238C30.3986 31.6489 29.5507 32.0001 28.6667 32.0001Z" stroke="#21312A" stroke-width="3.5" stroke-linecap="round" stroke-linejoin="round"/>
</svg>
