<svg width="34" height="34" viewBox="0 0 34 34" fill="none" xmlns="http://www.w3.org/2000/svg">
<path d="M12 2V5.33333M22 2V5.33333M12 28.6667V32M22 28.6667V32M5.33333 12H2M5.33333 22H2M32 12H28.6667M32 22H28.6667M8.66667 28.6667H25.3333C26.2174 28.6667 27.0652 28.3155 27.6904 27.6904C28.3155 27.0652 28.6667 26.2174 28.6667 25.3333V8.66667C28.6667 7.78261 28.3155 6.93477 27.6904 6.30964C27.0652 5.68452 26.2174 5.33333 25.3333 5.33333H8.66667C7.78261 5.33333 6.93477 5.68452 6.30964 6.30964C5.68452 6.93477 5.33333 7.78261 5.33333 8.66667V25.3333C5.33333 26.2174 5.68452 27.0652 6.30964 27.6904C6.93477 28.3155 7.78261 28.6667 8.66667 28.6667ZM12 12H22V22H12V12Z" stroke="#21312A" stroke-width="3.5" stroke-linecap="round" stroke-linejoin="round"/>
</svg>
