<svg width="31" height="31" viewBox="0 0 31 31" fill="none" xmlns="http://www.w3.org/2000/svg">
<path d="M2.48833 2.48833C2.17575 2.80082 2.00009 3.22468 2 3.66667V7C2 7.44203 2.1756 7.86595 2.48816 8.17851C2.80072 8.49107 3.22464 8.66667 3.66667 8.66667H27C27.442 8.66667 27.866 8.49107 28.1785 8.17851C28.4911 7.86595 28.6667 7.44203 28.6667 7V3.66667C28.6667 3.22464 28.4911 2.80072 28.1785 2.48816C27.866 2.1756 27.442 2 27 2H3.66667C3.22468 2.00009 2.80082 2.17575 2.48833 2.48833V2.48833Z" stroke="#21312A" stroke-width="3.5" stroke-linecap="round" stroke-linejoin="round"/>
<path d="M2.48833 15.8216C2.17575 16.1341 2.00009 16.5579 2 16.9999V26.9999C2 27.4419 2.1756 27.8659 2.48816 28.1784C2.80072 28.491 3.22464 28.6666 3.66667 28.6666H13.6667C14.1087 28.6666 14.5326 28.491 14.8452 28.1784C15.1577 27.8659 15.3333 27.4419 15.3333 26.9999V16.9999C15.3333 16.5579 15.1577 16.134 14.8452 15.8214C14.5326 15.5088 14.1087 15.3333 13.6667 15.3333H3.66667C3.22468 15.3333 2.80082 15.509 2.48833 15.8216Z" stroke="#21312A" stroke-width="3.5" stroke-linecap="round" stroke-linejoin="round"/>
<path d="M22.4883 15.8216C22.1757 16.1341 22.0001 16.5579 22 16.9999V26.9999C22 27.4419 22.1756 27.8659 22.4882 28.1784C22.8007 28.491 23.2246 28.6666 23.6667 28.6666H27C27.442 28.6666 27.866 28.491 28.1785 28.1784C28.4911 27.8659 28.6667 27.4419 28.6667 26.9999V16.9999C28.6667 16.5579 28.4911 16.134 28.1785 15.8214C27.866 15.5088 27.442 15.3333 27 15.3333H23.6667C23.2247 15.3333 22.8008 15.509 22.4883 15.8216Z" stroke="#21312A" stroke-width="3.5" stroke-linecap="round" stroke-linejoin="round"/>
</svg>
