<svg width="32" height="32" viewBox="0 0 32 32" fill="none" xmlns="http://www.w3.org/2000/svg">
<rect width="32" height="32" rx="16" fill="black"/>
<g clip-path="url(#clip0_518_13)">
<path d="M15.9989 12.2818C13.9418 12.2818 12.2816 13.942 12.2816 15.9991C12.2816 18.0562 13.9418 19.7164 15.9989 19.7164C18.056 19.7164 19.7162 18.0562 19.7162 15.9991C19.7162 13.942 18.056 12.2818 15.9989 12.2818ZM15.9989 18.4151C14.6686 18.4151 13.5829 17.3294 13.5829 15.9991C13.5829 14.6688 14.6686 13.5831 15.9989 13.5831C17.3292 13.5831 18.4149 14.6688 18.4149 15.9991C18.4149 17.3294 17.3292 18.4151 15.9989 18.4151ZM19.8685 11.2632C19.3882 11.2632 19.0003 11.651 19.0003 12.1313C19.0003 12.6116 19.3882 12.9995 19.8685 12.9995C20.3488 12.9995 20.7366 12.6135 20.7366 12.1313C20.7368 12.0173 20.7144 11.9043 20.6708 11.7989C20.6273 11.6935 20.5633 11.5978 20.4827 11.5171C20.402 11.4365 20.3063 11.3726 20.2009 11.329C20.0955 11.2854 19.9825 11.263 19.8685 11.2632V11.2632ZM23.2451 15.9991C23.2451 14.9986 23.2541 14.0072 23.1979 13.0086C23.1417 11.8486 22.8771 10.8191 22.0289 9.97091C21.1789 9.12088 20.1512 8.85807 18.9913 8.80189C17.9908 8.7457 16.9994 8.75477 16.0007 8.75477C15.0003 8.75477 14.0089 8.7457 13.0102 8.80189C11.8502 8.85807 10.8208 9.12269 9.97255 9.97091C9.12251 10.8209 8.85971 11.8486 8.80352 13.0086C8.74734 14.009 8.7564 15.0004 8.7564 15.9991C8.7564 16.9977 8.74734 17.991 8.80352 18.9896C8.85971 20.1496 9.12432 21.179 9.97255 22.0273C10.8226 22.8773 11.8502 23.1401 13.0102 23.1963C14.0107 23.2525 15.0021 23.2434 16.0007 23.2434C17.0012 23.2434 17.9926 23.2525 18.9913 23.1963C20.1512 23.1401 21.1807 22.8755 22.0289 22.0273C22.8789 21.1772 23.1417 20.1496 23.1979 18.9896C23.2559 17.991 23.2451 16.9996 23.2451 15.9991V15.9991ZM21.6501 20.2728C21.5178 20.6027 21.3583 20.8492 21.1027 21.1029C20.8472 21.3585 20.6025 21.518 20.2726 21.6503C19.3193 22.0291 17.0556 21.9439 15.9989 21.9439C14.9423 21.9439 12.6767 22.0291 11.7234 21.6521C11.3935 21.5198 11.147 21.3603 10.8933 21.1047C10.6377 20.8492 10.4782 20.6045 10.3459 20.2746C9.96892 19.3195 10.0541 17.0557 10.0541 15.9991C10.0541 14.9424 9.96892 12.6769 10.3459 11.7235C10.4782 11.3937 10.6377 11.1472 10.8933 10.8934C11.1488 10.6397 11.3935 10.4784 11.7234 10.3461C12.6767 9.9691 14.9423 10.0543 15.9989 10.0543C17.0556 10.0543 19.3211 9.9691 20.2745 10.3461C20.6043 10.4784 20.8508 10.6379 21.1046 10.8934C21.3601 11.149 21.5196 11.3937 21.6519 11.7235C22.0289 12.6769 21.9437 14.9424 21.9437 15.9991C21.9437 17.0557 22.0289 19.3195 21.6501 20.2728Z" fill="white"/>
</g>
<defs>
<clipPath id="clip0_518_13">
<rect width="16" height="16" fill="white" transform="translate(8 8)"/>
</clipPath>
</defs>
</svg>
