<svg width="102" height="73" viewBox="0 0 102 73" fill="none" xmlns="http://www.w3.org/2000/svg">
<rect width="102" height="72.6102" rx="4" fill="#ED1E79"/>
<path d="M39.2873 13.7716C40.3932 12.661 41.8949 12.0352 43.4622 12.0319L58.4357 12C60.003 11.9967 61.5074 12.6161 62.618 13.7219L73.2284 24.2873C74.339 25.3932 74.9648 26.8949 74.9681 28.4622L75 43.4357C75.0033 45.003 74.3839 46.5074 73.2781 47.618L62.7127 58.2284C61.6068 59.339 60.1051 59.9648 58.5378 59.9681L43.5643 60C41.997 60.0033 40.4926 59.3839 39.382 58.2781L28.7716 47.7127C27.661 46.6068 27.0352 45.1051 27.0319 43.5378L27 28.5643C26.9967 26.997 27.6161 25.4926 28.7219 24.382L39.2873 13.7716Z" fill="#F1F4F8"/>
</svg>
