<svg width="32" height="32" viewBox="0 0 32 32" fill="none" xmlns="http://www.w3.org/2000/svg">
<rect width="32" height="32" rx="16" fill="black"/>
<path d="M22.4996 11.9734C22.0215 12.1797 21.5012 12.3281 20.9652 12.3859C21.5217 12.0554 21.9383 11.5331 22.1371 10.9172C21.615 11.2278 21.043 11.4456 20.4465 11.5609C20.1972 11.2944 19.8957 11.0821 19.5607 10.9372C19.2258 10.7923 18.8646 10.718 18.4996 10.7188C17.023 10.7188 15.8355 11.9156 15.8355 13.3844C15.8355 13.5906 15.8605 13.7969 15.9012 13.9953C13.6902 13.8797 11.7184 12.8234 10.4074 11.2063C10.1686 11.6142 10.0434 12.0788 10.0449 12.5516C10.0449 13.4766 10.5152 14.2922 11.2324 14.7719C10.8098 14.7552 10.397 14.6391 10.0277 14.4328V14.4656C10.0277 15.7609 10.9434 16.8344 12.1637 17.0813C11.9345 17.1408 11.6988 17.1712 11.4621 17.1719C11.2887 17.1719 11.1246 17.1547 10.959 17.1313C11.2965 18.1875 12.2793 18.9547 13.4496 18.9797C12.534 19.6969 11.3871 20.1188 10.1418 20.1188C9.91836 20.1188 9.71211 20.1109 9.49805 20.0859C10.6793 20.8438 12.0809 21.2813 13.5902 21.2813C18.4902 21.2813 21.1715 17.2219 21.1715 13.6984C21.1715 13.5828 21.1715 13.4672 21.1637 13.3516C21.6824 12.9719 22.1371 12.5016 22.4996 11.9734Z" fill="white"/>
</svg>
